<?xml version="1.0" encoding="UTF-8"?>
<svg id="Layer_1" data-name="Layer 1" xmlns="http://www.w3.org/2000/svg" viewBox="0 0 912.6 1080">
  <defs>
    <style>
      .cls-1 {
        fill: #fff;
      }
    </style>
  </defs>
  <polygon class="cls-1" points="818.78 676.89 499.58 861.18 180.39 676.89 237.35 577.85 499.58 729.24 761.82 577.85 818.78 676.89"/>
  <g>
    <path class="cls-1" d="M604.47-1.07l-78.8,45.52,142.93,82.5v251.65l-31.38,18.1v-251.62L389.37,2l-58.99,34.05-121.2,69.98,307.69,177.64v108.95c2.27,2.24,4.38,4.43,6.41,6.67,4.53,4.94,8.92,10.3,13.05,15.9,3.44,4.67,6.75,9.55,9.84,14.54,9.94,16.1,18,33.64,23.94,52.2l13.05,8.09c9.99,6.23,17.47,15.28,21.66,25.79,2.54,6.31,3.88,13.17,3.88,20.24v47.89c0,.22,0,.46-.02.68l117.87-68.06,56.97-32.88,23.16-13.37V115.68L604.47-1.07ZM696.59,236.52l76.97-44.43v27.82l-76.97,44.43v-27.82ZM696.59,284l76.97-44.43v27.82l-76.97,44.41v-27.81ZM696.59,331.47l76.97-44.43v27.82l-76.97,44.41v-27.81Z"/>
    <path class="cls-1" d="M484.65,302.27v76.49c-8.79-5.53-17.83-9.79-26.96-12.71v-42.53l-220.93-127.56v53.83c-17.75-4.57-34.55-2.94-44.28-.51v-115.7l292.17,168.68Z"/>
  </g>
  <polygon class="cls-1" points="423.2 867.98 423.2 904.89 287.21 983.41 0 817.59 0 780.7 136.01 702.17 423.2 867.98"/>
  <path class="cls-1" d="M577.72,531.43c-1.24-6.38-5.04-11.98-10.7-15.51l-19.46-12.08c-2.27-1.42-3.94-3.65-4.65-6.24-.54-2.04-1.07-3.83-1.6-5.51-5.22-16.57-12.42-32.27-21.1-46.33-2.66-4.31-5.48-8.47-8.41-12.44-3.49-4.75-7.18-9.25-11.03-13.44-2.15-2.37-4.38-4.65-6.63-6.84-1.46-1.41-2.92-2.75-4.39-4.07-11.03-9.74-22.77-16.98-34.59-21.38-8.87-3.31-17.8-5.04-26.5-5.04-6.67,0-13.18,1-19.37,2.95-11.64,3.68-21.97,10.67-30.69,20.78-2.09,2.39-5.04,3.66-8.04,3.66-1.82,0-3.65-.46-5.29-1.41l-30.96-17.88c-2.37-1.37-4.14-3.63-4.89-6.28-.92-3.17-1.83-6.16-2.75-8.87-17.15-51.25-50.94-90-87.35-102.91-8.58-3.05-17.32-4.67-26.02-4.67-7.01,0-13.91,1.12-20.51,3.31-.1.03-.19.07-.29.1-9.74,3.31-18.73,9.18-26.38,17.13-2.1,2.17-4.09,4.5-5.97,6.97-2.05,2.7-5.21,4.17-8.45,4.17-1.48,0-2.95-.31-4.36-.93l-7.58-3.43-8.65-3.92c-.26-.12-.49-.24-.71-.36-2.6-1.42-5.46-2.17-8.35-2.17-4.53,0-8.86,1.75-12.15,4.92-3.46,3.29-5.34,7.75-5.34,12.55v47.91c0,8.24,4.19,15.74,11.18,20.1l18.73,11.62c2.75,1.71,4.56,4.58,4.94,7.79.12.95.24,1.92.36,2.87,1.7,13,4.68,25.92,8.89,38.49,4.68,13.98,10.6,27.04,17.47,38.88,3.83,6.62,7.97,12.86,12.37,18.68,6.09,8.07,12.64,15.34,19.54,21.65,12.86,11.77,26.91,20.29,41.29,24.75,6.09,1.9,12.23,3.05,18.37,3.43,1.44.09,2.87.14,4.31.14.97,0,1.93-.02,2.9-.07,6.06-.25,11.98-1.36,17.59-3.24,5.56-1.87,10.84-4.53,15.74-7.96,15.51-10.72,27.43-28.72,33.74-51.57,0-.05.02-.1.03-.15,1.29-4.67,5.51-7.8,10.21-7.8.53,0,1.07.05,1.59.12,5.31.8,9.18,5.45,9.03,10.81-.09,2.99-.1,6.01-.05,9.04.37,18.7,3.61,38.14,9.5,56.75,2.77,8.77,6.09,17.3,9.89,25.5,8.86,19.03,20.36,36.13,33.59,49.84,1.2,1.26,2.44,2.48,3.68,3.68,14.32,13.79,30.05,23.24,45.7,27.64,2.68.76,5.34,1.37,8.01,1.82,3.95.7,7.89,1.03,11.77,1.03,5.02,0,9.99-.58,14.81-1.71,1.53-.36,3.05-.78,4.55-1.26,2.22-.7,4.38-1.51,6.48-2.43,3.87-1.68,7.55-3.75,11.03-6.16,5.84-4.04,11.11-9.08,15.79-15.06,5.5-7.02,10.16-15.37,13.88-24.9,1.63-4.19,5.62-6.77,9.87-6.77,1.19,0,2.39.2,3.58.63,1.9.68,3.85,1.03,5.79,1.03,9.64,0,17.47-7.85,17.47-17.49v-47.89c0-1.56-.15-3.1-.46-4.6ZM297.53,459.89c-4.72,18.53-14.76,32.25-29.21,37.08-16.17,5.41-34.59-1.36-50.84-16.52-14.28-13.32-26.89-33.1-34.81-56.78-16.95-50.64-6.07-99.92,24.29-110.08,30.35-10.16,68.71,22.66,85.66,73.3,8.86,26.52,10.11,52.66,4.92,73ZM512.27,569.23c-4.22,21.83-15.15,38.15-31.42,43.28-30.52,9.62-68.3-23.85-84.35-74.78-2.54-8.08-4.39-16.1-5.58-23.92-6.29-41.58,6.09-77.63,31.79-85.72,30.52-9.64,68.3,23.85,84.35,74.78,7.52,23.8,8.94,47.21,5.21,66.37Z"/>
  <path class="cls-1" d="M912.6,692.36c-.02,30.43-15.78,57.68-42.17,72.86l-285.57,164.29-13.59,7.82-13.61,7.82,34.56,19.95.08,36.71-135.11,79.26-89.62-51.74v-36.66l136.23-78.63,37.39,21.6,13.61-7.82,13.59-7.82,293.85-169.04c21.22-12.21,33.91-34.13,33.93-58.61,0-16.57-5.92-32.42-16.68-44.65l-1.88-1.97,14.45-8.33,1.19,1.27c1,1.09,1.78,2,2.46,2.9,11.08,14.59,16.91,32.15,16.9,50.79Z"/>
</svg>