<?xml version="1.0" encoding="UTF-8"?>
<svg id="Layer_1" data-name="Layer 1" xmlns="http://www.w3.org/2000/svg" viewBox="0 0 912.6 1080">
  <defs>
    <style>
      .cls-1 {
        fill: #0b1614;
      }
    </style>
  </defs>
  <polygon class="cls-1" points="473.91 695.36 500.32 710.61 526.73 695.36 753.97 564.16 819.99 678.96 500.32 863.52 180.65 678.96 246.57 564.33 246.66 564.16 247.15 564.43 473.91 695.36"/>
  <path class="cls-1" d="M605.36,0l-84.01,48.52,143.14,82.64v246.13l-21.24,12.25v-246.11L395.05.14l-64.17,37.04-126.47,73.02,308.14,177.92v114.26c12.54,12.71,23.7,28.07,32.91,45.12,6.76,12.54,12.47,25.99,16.89,39.99.24.75.48,1.51.71,2.31l16,9.94c13.29,8.26,21.2,22.53,21.2,38.16v47.96c0,2.17-.19,4.3-.53,6.37l127.9-73.85,80.24-46.31V116.92L605.36,0ZM700.17,239.42l71.99-41.56v21.98l-71.99,41.54v-21.97ZM700.17,286.97l71.99-41.56v21.97l-71.99,41.56v-21.97ZM700.17,334.51l71.99-41.56v21.97l-71.99,41.56v-21.97ZM192.77,128.99v121.75c10.38-2.6,28.62-4,46.89,1.19v-50.17l216.16,124.81v40.33c11.79,3.45,23.46,9.12,34.64,16.85v-82.89L192.77,128.99Z"/>
  <path class="cls-1" d="M437.42,899.46l-149.79,86.47L0,819.88c0-16.43,0-20.53,0-36.96l149.79-86.5,287.63,166.07c0,16.43,0,20.53,0,36.96Z"/>
  <path class="cls-1" d="M567.85,517.76l-19.49-12.1c-2.28-1.43-3.94-3.65-4.65-6.25-.54-2.04-1.07-3.84-1.6-5.52-5.23-16.6-12.44-32.31-21.14-46.4-2.67-4.32-5.49-8.48-8.43-12.45-3.5-4.76-7.19-9.26-11.04-13.46-2.16-2.38-4.38-4.66-6.64-6.85-1.46-1.41-2.92-2.75-4.4-4.08-11.04-9.75-22.8-17.01-34.64-21.41-8.88-3.31-17.82-5.05-26.54-5.05-6.68,0-13.2,1-19.4,2.96-11.66,3.69-22,10.69-30.73,20.81-3.33,3.86-8.94,4.81-13.35,2.26l-31.01-17.91c-2.38-1.38-4.15-3.64-4.89-6.29-.92-3.18-1.84-6.17-2.75-8.89-17.18-51.33-51.02-90.13-87.48-103.06-8.6-3.06-17.35-4.67-26.06-4.67-7.02,0-13.93,1.12-20.54,3.31-.1.03-.19.07-.29.1-9.75,3.31-18.76,9.19-26.42,17.16-2.11,2.18-4.09,4.5-5.98,6.98-2.99,3.94-8.32,5.28-12.83,3.25l-7.59-3.43-8.66-3.92c-.26-.12-.49-.24-.71-.36-2.6-1.43-5.47-2.17-8.36-2.17-4.54,0-8.87,1.75-12.16,4.93-3.47,3.3-5.35,7.76-5.35,12.57v47.98c0,8.26,4.2,15.77,11.2,20.13l18.76,11.64c2.75,1.72,4.57,4.59,4.94,7.8.12.95.24,1.92.36,2.87,1.7,13.01,4.69,25.96,8.9,38.55,4.69,14,10.62,27.08,17.5,38.94,3.84,6.63,7.99,12.88,12.39,18.71,17.43,23.14,38.77,39.6,60.93,46.47,6.1,1.9,12.25,3.06,18.4,3.43,1.44.08,2.87.14,4.32.14.97,0,1.94-.02,2.91-.07,6.07-.25,11.99-1.36,17.62-3.25,5.57-1.87,10.86-4.54,15.77-7.97,15.56-10.75,27.52-28.85,33.83-51.8,1.29-4.67,5.52-7.82,10.23-7.82.53,0,1.07.05,1.6.12,5.32.8,9.19,5.45,9.04,10.82-.66,21.42,2.62,44.21,9.46,65.89,2.77,8.78,6.1,17.33,9.91,25.54,8.87,19.06,20.39,36.19,33.64,49.92,1.21,1.26,2.45,2.48,3.69,3.69,14.34,13.81,30.09,23.28,45.77,27.68,2.68.76,5.35,1.38,8.02,1.82,3.96.7,7.9,1.04,11.79,1.04,5.03,0,10.01-.58,14.83-1.72,1.53-.36,3.06-.78,4.55-1.26,2.23-.7,4.38-1.51,6.49-2.43,3.87-1.68,7.56-3.75,11.04-6.17,5.84-4.04,11.13-9.09,15.82-15.09,5.51-7.03,10.18-15.39,13.9-24.94,2.09-5.37,8.05-8.09,13.47-6.15,1.9.68,3.86,1.04,5.79,1.04,9.65,0,17.5-7.87,17.5-17.52v-47.96c0-8.24-4.18-15.77-11.18-20.13ZM268.71,498.79c-30.4,10.17-68.81-22.69-85.78-73.41-16.97-50.71-6.08-100.07,24.33-110.25,30.4-10.17,68.81,22.69,85.78,73.41,16.97,50.71,6.08,100.07-24.33,110.25ZM481.57,614.49c-30.58,9.64-68.4-23.89-84.48-74.89-16.08-51-4.33-100.16,26.25-109.81,30.58-9.64,68.4,23.89,84.48,74.89,16.08,51,4.33,100.16-26.25,109.81Z"/>
  <path class="cls-1" d="M893.95,636.82l-18.69,10.74c10.31,11.7,16.11,26.83,16.1,43.13-.01,23.67-12.27,44.84-32.78,56.64l-309.07,177.81-35.11-20.27-150.01,86.6c0,16.31,0,20.39,0,36.71l89.76,51.82,148.93-87.37c-.06-16.25-.07-20.38-.13-36.63l-32.18-18.58,298.41-171.67c27.17-15.63,43.41-43.68,43.43-75.03.01-20.13-6.69-38.88-18.65-53.89Z"/>
</svg>